<svg version="1.1" id="Layer_1" xmlns="http://www.w3.org/2000/svg" xmlns:xlink="http://www.w3.org/1999/xlink" x="0px" y="0px"
	 width="100%" viewBox="0 0 500 500" enable-background="new 0 0 500 500" xml:space="preserve">
<path fill="#000000" opacity="1.000000" stroke="none" 
	d="
M278.000000,501.000000 
	C185.333359,501.000000 93.166710,501.000000 1.000049,501.000000 
	C1.000033,334.333405 1.000033,167.666794 1.000016,1.000139 
	C167.666565,1.000093 334.333130,1.000093 500.999756,1.000046 
	C500.999847,167.666519 500.999847,334.333038 500.999939,500.999786 
	C426.833344,501.000000 352.666656,501.000000 278.000000,501.000000 
M248.500000,333.984802 
	C267.497589,333.982666 286.506470,333.577881 305.489136,334.108887 
	C320.032471,334.515747 332.073669,324.026337 332.039459,307.685577 
	C331.928223,254.526077 331.988403,201.366196 331.982635,148.206467 
	C331.982452,146.588959 331.982605,144.971451 331.982605,143.226776 
	C327.150757,143.226776 322.746246,143.226776 317.983154,143.226776 
	C317.983154,153.814636 317.983154,164.182831 317.983154,173.982544 
	C313.256012,173.295059 308.806549,172.119232 304.348907,172.087173 
	C279.186829,171.906174 254.022552,171.947296 228.859512,172.044937 
	C223.949020,172.063980 219.042877,172.701553 214.131073,172.991928 
	C201.888260,173.715652 193.019989,185.718262 193.012177,196.604645 
	C192.985336,233.933090 193.212082,271.263428 192.884537,308.589020 
	C192.769974,321.644806 203.720566,334.861481 218.509018,334.070221 
	C228.146606,333.554596 237.834595,333.980621 248.500000,333.984802 
z"/>
<path fill="#FFFFFF" opacity="1.000000" stroke="none" 
	d="
M248.000000,333.984802 
	C237.834595,333.980621 228.146606,333.554596 218.509018,334.070221 
	C203.720566,334.861481 192.769974,321.644806 192.884537,308.589020 
	C193.212082,271.263428 192.985336,233.933090 193.012177,196.604645 
	C193.019989,185.718262 201.888260,173.715652 214.131073,172.991928 
	C219.042877,172.701553 223.949020,172.063980 228.859512,172.044937 
	C254.022552,171.947296 279.186829,171.906174 304.348907,172.087173 
	C308.806549,172.119232 313.256012,173.295059 317.983154,173.982544 
	C317.983154,164.182831 317.983154,153.814636 317.983154,143.226776 
	C322.746246,143.226776 327.150757,143.226776 331.982605,143.226776 
	C331.982605,144.971451 331.982452,146.588959 331.982635,148.206467 
	C331.988403,201.366196 331.928223,254.526077 332.039459,307.685577 
	C332.073669,324.026337 320.032471,334.515747 305.489136,334.108887 
	C286.506470,333.577881 267.497589,333.982666 248.000000,333.984802 
M209.000671,240.500000 
	C209.000671,255.817123 208.815277,271.137817 209.109070,286.449280 
	C209.202103,291.297607 210.574448,296.121399 211.484818,301.715118 
	C242.984695,266.216888 273.630035,231.681702 305.045471,196.278641 
	C300.229187,195.033981 296.307526,193.198013 292.359161,193.138687 
	C272.384827,192.838577 252.397949,192.718491 232.426880,193.112762 
	C221.561707,193.327255 210.478333,201.048904 209.997528,213.791641 
	C209.674194,222.361435 209.333572,230.930588 209.000671,240.500000 
M233.429871,307.092499 
	C232.328735,308.876556 231.227615,310.660583 229.780472,313.005280 
	C231.783340,313.005280 233.368362,313.005402 234.953400,313.005249 
	C253.428635,313.003296 271.932709,312.362701 290.370239,313.195435 
	C305.949036,313.899017 316.444366,301.064606 316.162811,287.452271 
	C315.705139,265.324585 316.025085,243.180878 316.016907,221.043930 
	C316.016357,219.483994 316.016846,217.924042 316.016846,215.223160 
	C312.633606,219.105545 310.125458,222.067337 307.526367,224.947052 
	C303.418854,229.498077 299.174927,233.927628 295.123444,238.527267 
	C286.810822,247.964600 278.639191,257.526367 270.307922,266.947021 
	C265.326324,272.580017 260.112427,278.006866 255.074127,283.590637 
	C248.071854,291.351013 241.136353,299.171631 233.429871,307.092499 
z"/>
<path fill="#000000" opacity="1.000000" stroke="none" 
	d="
M209.000671,240.000015 
	C209.333572,230.930588 209.674194,222.361435 209.997528,213.791641 
	C210.478333,201.048904 221.561707,193.327255 232.426880,193.112762 
	C252.397949,192.718491 272.384827,192.838577 292.359161,193.138687 
	C296.307526,193.198013 300.229187,195.033981 305.045471,196.278641 
	C273.630035,231.681702 242.984695,266.216888 211.484818,301.715118 
	C210.574448,296.121399 209.202103,291.297607 209.109070,286.449280 
	C208.815277,271.137817 209.000671,255.817123 209.000671,240.000015 
z"/>
<path fill="#000000" opacity="1.000000" stroke="none" 
	d="
M233.801056,307.029480 
	C241.136353,299.171631 248.071854,291.351013 255.074127,283.590637 
	C260.112427,278.006866 265.326324,272.580017 270.307922,266.947021 
	C278.639191,257.526367 286.810822,247.964600 295.123444,238.527267 
	C299.174927,233.927628 303.418854,229.498077 307.526367,224.947052 
	C310.125458,222.067337 312.633606,219.105545 316.016846,215.223160 
	C316.016846,217.924042 316.016357,219.483994 316.016907,221.043930 
	C316.025085,243.180878 315.705139,265.324585 316.162811,287.452271 
	C316.444366,301.064606 305.949036,313.899017 290.370239,313.195435 
	C271.932709,312.362701 253.428635,313.003296 234.953400,313.005249 
	C233.368362,313.005402 231.783340,313.005280 229.780472,313.005280 
	C231.227615,310.660583 232.328735,308.876556 233.801056,307.029480 
z"/>
</svg>